# xmcd
#
# Track frame offsets:
#	150
#	21062
#	41015
#	70089
#	93331
#	126963
#	148633
#	168945
#	190416
#	217568
#	243342
#
# Disc length: 3464 seconds
#
# Revision: 0
# Processed by: cddbd v1.5.2PL0 Copyright (c) Steve Scherf et al.
# Submitted via: EasyCDDAExtractor 15.2.1.1
#
DISCID=900d860b
DTITLE=Popa Chubby - Back To New York City
DYEAR=2011
DGENRE=Blues Rock
TTITLE0=Back To New York City
TTITLE1=She Loves Everybody But Me
TTITLE2=Pound Of Flesh
TTITLE3=Warrier God
TTITLE4=The Future
TTITLE5=It's About You
TTITLE6=A Love That Will Not Die
TTITLE7=Keep Your Wood Pile Dry
TTITLE8=Stand Before The Sun
TTITLE9=She Made Me Beg For It
TTITLE10=Jesus Joy Of Man Desire
EXTD=
EXTT0=
EXTT1=
EXTT2=
EXTT3=
EXTT4=
EXTT5=
EXTT6=
EXTT7=
EXTT8=
EXTT9=
EXTT10=
PLAYORDER=
